G04 EAGLE Gerber RS-274X export*
G75*
%MOMM*%
%FSLAX34Y34*%
%LPD*%
%INSilkscreen Top*%
%IPPOS*%
%AMOC8*
5,1,8,0,0,1.08239X$1,22.5*%
G01*
G04 Define Apertures*
%ADD10C,0.152400*%
G36*
X187203Y120530D02*
X186839Y120536D01*
X186485Y120555D01*
X186141Y120586D01*
X185807Y120629D01*
X185483Y120685D01*
X185169Y120754D01*
X184865Y120835D01*
X184571Y120928D01*
X184287Y121034D01*
X184013Y121152D01*
X183495Y121426D01*
X183016Y121750D01*
X182578Y122124D01*
X182186Y122541D01*
X181846Y122997D01*
X181696Y123240D01*
X181559Y123492D01*
X181435Y123753D01*
X181324Y124024D01*
X181226Y124305D01*
X181141Y124595D01*
X181069Y124895D01*
X181010Y125205D01*
X180964Y125524D01*
X180931Y125852D01*
X180912Y126190D01*
X180905Y126538D01*
X180917Y127021D01*
X180953Y127483D01*
X181014Y127925D01*
X181098Y128347D01*
X181206Y128748D01*
X181339Y129129D01*
X181495Y129490D01*
X181676Y129831D01*
X181880Y130151D01*
X182108Y130449D01*
X182359Y130725D01*
X182633Y130979D01*
X182930Y131211D01*
X183251Y131421D01*
X183595Y131609D01*
X183962Y131776D01*
X184488Y130190D01*
X184226Y130075D01*
X183981Y129943D01*
X183751Y129795D01*
X183537Y129631D01*
X183339Y129450D01*
X183157Y129253D01*
X182991Y129040D01*
X182841Y128811D01*
X182708Y128568D01*
X182592Y128314D01*
X182494Y128048D01*
X182414Y127772D01*
X182352Y127484D01*
X182307Y127186D01*
X182281Y126876D01*
X182272Y126556D01*
X182292Y126057D01*
X182354Y125588D01*
X182457Y125146D01*
X182601Y124734D01*
X182787Y124349D01*
X183013Y123994D01*
X183281Y123666D01*
X183590Y123367D01*
X183935Y123101D01*
X184310Y122869D01*
X184716Y122674D01*
X185152Y122513D01*
X185619Y122389D01*
X186116Y122300D01*
X186644Y122247D01*
X187203Y122229D01*
X187756Y122247D01*
X188281Y122303D01*
X188779Y122396D01*
X189249Y122525D01*
X189691Y122692D01*
X190105Y122896D01*
X190492Y123137D01*
X190851Y123416D01*
X191174Y123725D01*
X191454Y124061D01*
X191691Y124423D01*
X191885Y124811D01*
X192036Y125226D01*
X192144Y125666D01*
X192209Y126133D01*
X192230Y126626D01*
X192220Y126945D01*
X192190Y127254D01*
X192140Y127553D01*
X192070Y127841D01*
X191979Y128120D01*
X191869Y128389D01*
X191739Y128648D01*
X191589Y128896D01*
X191418Y129135D01*
X191228Y129363D01*
X191017Y129582D01*
X190787Y129790D01*
X190536Y129988D01*
X190265Y130177D01*
X189975Y130355D01*
X189664Y130523D01*
X190347Y131889D01*
X190734Y131689D01*
X191096Y131470D01*
X191435Y131231D01*
X191751Y130973D01*
X192042Y130696D01*
X192309Y130399D01*
X192553Y130083D01*
X192773Y129748D01*
X192968Y129396D01*
X193137Y129031D01*
X193280Y128651D01*
X193397Y128258D01*
X193488Y127851D01*
X193553Y127430D01*
X193592Y126995D01*
X193605Y126547D01*
X193593Y126088D01*
X193557Y125645D01*
X193496Y125218D01*
X193411Y124807D01*
X193302Y124412D01*
X193169Y124032D01*
X193012Y123668D01*
X192830Y123319D01*
X192626Y122989D01*
X192401Y122679D01*
X192155Y122389D01*
X191889Y122119D01*
X191601Y121870D01*
X191293Y121641D01*
X190964Y121432D01*
X190614Y121243D01*
X190246Y121076D01*
X189861Y120931D01*
X189459Y120808D01*
X189041Y120708D01*
X188606Y120630D01*
X188155Y120574D01*
X187687Y120541D01*
X187203Y120530D01*
G37*
G36*
X193430Y133954D02*
X192090Y133954D01*
X192090Y137098D01*
X182596Y137098D01*
X184584Y134313D01*
X183095Y134313D01*
X181089Y137230D01*
X181089Y138683D01*
X192090Y138683D01*
X192090Y141688D01*
X193430Y141688D01*
X193430Y133954D01*
G37*
G36*
X193430Y116305D02*
X181089Y116305D01*
X181089Y117978D01*
X193430Y117978D01*
X193430Y116305D01*
G37*
G36*
X35923Y53674D02*
X29887Y53674D01*
X29887Y54720D01*
X32341Y54720D01*
X32341Y62130D01*
X30167Y60578D01*
X30167Y61740D01*
X32444Y63306D01*
X33579Y63306D01*
X33579Y54720D01*
X35923Y54720D01*
X35923Y53674D01*
G37*
G36*
X13576Y49155D02*
X13252Y50775D01*
X13520Y50855D01*
X13771Y50954D01*
X14003Y51074D01*
X14216Y51213D01*
X14411Y51372D01*
X14588Y51550D01*
X14746Y51748D01*
X14885Y51966D01*
X15007Y52204D01*
X15113Y52463D01*
X15203Y52742D01*
X15276Y53041D01*
X15333Y53361D01*
X15374Y53702D01*
X15398Y54063D01*
X15406Y54445D01*
X15397Y54838D01*
X15371Y55209D01*
X15328Y55556D01*
X15267Y55880D01*
X15189Y56181D01*
X15093Y56459D01*
X14980Y56714D01*
X14850Y56945D01*
X14703Y57152D01*
X14539Y57330D01*
X14360Y57482D01*
X14164Y57605D01*
X13951Y57702D01*
X13723Y57770D01*
X13478Y57812D01*
X13217Y57826D01*
X12929Y57808D01*
X12669Y57757D01*
X12438Y57670D01*
X12236Y57550D01*
X12055Y57398D01*
X11892Y57218D01*
X11745Y57010D01*
X11614Y56774D01*
X11496Y56513D01*
X11388Y56227D01*
X11290Y55917D01*
X11202Y55583D01*
X10843Y54051D01*
X10681Y53363D01*
X10519Y52764D01*
X10357Y52253D01*
X10195Y51830D01*
X10028Y51471D01*
X9852Y51153D01*
X9667Y50874D01*
X9472Y50635D01*
X9265Y50429D01*
X9040Y50248D01*
X8798Y50094D01*
X8539Y49965D01*
X8262Y49863D01*
X7966Y49791D01*
X7649Y49747D01*
X7313Y49733D01*
X6928Y49752D01*
X6566Y49808D01*
X6227Y49903D01*
X5910Y50036D01*
X5616Y50206D01*
X5344Y50415D01*
X5096Y50661D01*
X4870Y50946D01*
X4668Y51265D01*
X4494Y51618D01*
X4347Y52003D01*
X4226Y52420D01*
X4132Y52871D01*
X4065Y53354D01*
X4025Y53870D01*
X4011Y54418D01*
X4021Y54928D01*
X4052Y55408D01*
X4102Y55856D01*
X4172Y56273D01*
X4263Y56659D01*
X4373Y57015D01*
X4504Y57339D01*
X4655Y57633D01*
X4830Y57900D01*
X5034Y58147D01*
X5265Y58373D01*
X5525Y58579D01*
X5814Y58763D01*
X6131Y58927D01*
X6476Y59070D01*
X6849Y59192D01*
X7138Y57545D01*
X6901Y57470D01*
X6681Y57379D01*
X6478Y57273D01*
X6292Y57151D01*
X6122Y57014D01*
X5970Y56862D01*
X5834Y56695D01*
X5715Y56512D01*
X5611Y56312D01*
X5521Y56094D01*
X5445Y55858D01*
X5383Y55603D01*
X5335Y55330D01*
X5300Y55039D01*
X5279Y54729D01*
X5273Y54401D01*
X5280Y54042D01*
X5303Y53705D01*
X5342Y53389D01*
X5395Y53096D01*
X5464Y52824D01*
X5548Y52575D01*
X5648Y52347D01*
X5763Y52141D01*
X5893Y51959D01*
X6038Y51800D01*
X6199Y51666D01*
X6374Y51557D01*
X6564Y51471D01*
X6770Y51410D01*
X6990Y51374D01*
X7226Y51362D01*
X7498Y51381D01*
X7746Y51437D01*
X7969Y51532D01*
X8167Y51664D01*
X8346Y51832D01*
X8511Y52033D01*
X8662Y52267D01*
X8798Y52535D01*
X8934Y52891D01*
X9086Y53387D01*
X9252Y54025D01*
X9433Y54804D01*
X9700Y55938D01*
X9849Y56491D01*
X10024Y57020D01*
X10229Y57520D01*
X10466Y57988D01*
X10600Y58206D01*
X10749Y58409D01*
X10911Y58598D01*
X11088Y58771D01*
X11280Y58929D01*
X11489Y59068D01*
X11714Y59189D01*
X11955Y59293D01*
X12216Y59375D01*
X12498Y59434D01*
X12803Y59469D01*
X13129Y59481D01*
X13544Y59460D01*
X13935Y59397D01*
X14302Y59293D01*
X14644Y59147D01*
X14963Y58959D01*
X15257Y58730D01*
X15528Y58458D01*
X15774Y58145D01*
X15994Y57794D01*
X16184Y57409D01*
X16345Y56990D01*
X16477Y56537D01*
X16579Y56050D01*
X16653Y55528D01*
X16697Y54973D01*
X16711Y54383D01*
X16699Y53834D01*
X16662Y53315D01*
X16601Y52825D01*
X16515Y52365D01*
X16405Y51935D01*
X16270Y51534D01*
X16111Y51162D01*
X15927Y50821D01*
X15719Y50509D01*
X15486Y50227D01*
X15229Y49974D01*
X14947Y49751D01*
X14641Y49557D01*
X14311Y49393D01*
X13955Y49259D01*
X13576Y49155D01*
G37*
G36*
X16536Y71644D02*
X15196Y71644D01*
X15196Y74788D01*
X5702Y74788D01*
X7690Y72003D01*
X6201Y72003D01*
X4195Y74920D01*
X4195Y76373D01*
X15196Y76373D01*
X15196Y79378D01*
X16536Y79378D01*
X16536Y71644D01*
G37*
G36*
X16536Y61780D02*
X4195Y61780D01*
X4195Y63453D01*
X15170Y63453D01*
X15170Y69689D01*
X16536Y69689D01*
X16536Y61780D01*
G37*
D10*
X28220Y67390D02*
X29490Y68660D01*
X32030Y71200D01*
X29490Y73740D01*
X28220Y75010D01*
X67590Y68660D02*
X68860Y68660D01*
X68860Y48340D01*
X67590Y68660D02*
X67590Y73740D01*
X68860Y73740D01*
X28220Y48340D02*
X20600Y48340D01*
X28220Y48340D02*
X61240Y48340D01*
X63780Y48340D02*
X68860Y48340D01*
X63780Y48340D02*
X63780Y52150D01*
X63780Y64850D02*
X61240Y64850D01*
X61240Y52150D02*
X63780Y52150D01*
X58700Y52150D02*
X58700Y64850D01*
X61240Y64850D01*
X61240Y77550D02*
X63780Y77550D01*
X61240Y77550D02*
X58700Y77550D01*
X61240Y68660D02*
X61240Y64850D01*
X61240Y68660D02*
X61240Y73740D01*
X61240Y77550D01*
X61240Y52150D02*
X61240Y48340D01*
X61240Y52150D02*
X58700Y52150D01*
X61240Y48340D02*
X63780Y48340D01*
X20600Y48340D02*
X20600Y55960D01*
X19330Y55960D01*
X19330Y61040D02*
X20600Y61040D01*
X19330Y61040D02*
X19330Y55960D01*
X19330Y81360D02*
X20600Y81360D01*
X20600Y86440D02*
X19330Y86440D01*
X20600Y73740D02*
X21870Y73740D01*
X21870Y68660D02*
X20600Y68660D01*
X67590Y94060D02*
X67590Y99140D01*
X68860Y99140D01*
X68860Y119460D01*
X61240Y119460D02*
X28220Y119460D01*
X61240Y115650D02*
X63780Y115650D01*
X58700Y115650D02*
X58700Y102950D01*
X61240Y90250D02*
X63780Y90250D01*
X61240Y90250D02*
X58700Y90250D01*
X61240Y102950D02*
X63780Y102950D01*
X61240Y102950D02*
X58700Y102950D01*
X61240Y94060D02*
X61240Y90250D01*
X61240Y94060D02*
X61240Y99140D01*
X61240Y102950D01*
X61240Y115650D02*
X61240Y119460D01*
X61240Y115650D02*
X58700Y115650D01*
X20600Y106760D02*
X19330Y106760D01*
X20600Y111840D02*
X20600Y119460D01*
X20600Y111840D02*
X19330Y111840D01*
X19330Y106760D01*
X20600Y99140D02*
X21870Y99140D01*
X20600Y99140D02*
X20600Y106760D01*
X21870Y99140D02*
X21870Y94060D01*
X20600Y94060D01*
X20600Y86440D01*
X19330Y86440D02*
X19330Y81360D01*
X20600Y81360D02*
X20600Y73740D01*
X21870Y73740D02*
X21870Y68660D01*
X20600Y68660D02*
X20600Y61040D01*
X28220Y67390D02*
X28220Y48340D01*
X28220Y75010D02*
X28220Y94060D01*
X28220Y99140D01*
X29490Y73740D02*
X61240Y73740D01*
X61240Y68660D02*
X29490Y68660D01*
X28220Y94060D02*
X61240Y94060D01*
X61240Y99140D02*
X28220Y99140D01*
X58700Y90250D02*
X58700Y77550D01*
X63780Y77550D02*
X63780Y64850D01*
X68860Y73740D02*
X68860Y94060D01*
X63780Y90250D02*
X63780Y102950D01*
X67590Y94060D02*
X68860Y94060D01*
X68860Y144860D02*
X67590Y144860D01*
X68860Y144860D02*
X68860Y124540D01*
X67590Y144860D02*
X67590Y149940D01*
X68860Y149940D01*
X61240Y124540D02*
X28220Y124540D01*
X61240Y141050D02*
X63780Y141050D01*
X63780Y128350D02*
X61240Y128350D01*
X58700Y128350D02*
X58700Y141050D01*
X61240Y141050D01*
X61240Y153750D02*
X63780Y153750D01*
X61240Y153750D02*
X58700Y153750D01*
X61240Y144860D02*
X61240Y141050D01*
X61240Y144860D02*
X61240Y149940D01*
X61240Y153750D01*
X61240Y128350D02*
X61240Y124540D01*
X61240Y128350D02*
X58700Y128350D01*
X20600Y124540D02*
X20600Y132160D01*
X19330Y132160D01*
X19330Y137240D02*
X20600Y137240D01*
X19330Y137240D02*
X19330Y132160D01*
X19330Y157560D02*
X20600Y157560D01*
X20600Y162640D02*
X19330Y162640D01*
X20600Y149940D02*
X21870Y149940D01*
X21870Y144860D02*
X20600Y144860D01*
X32030Y223600D02*
X29490Y226140D01*
X28220Y227410D01*
X67590Y226140D02*
X67590Y221060D01*
X67590Y226140D02*
X68860Y226140D01*
X68860Y246460D01*
X28220Y246460D02*
X28220Y227410D01*
X28220Y246460D02*
X20600Y246460D01*
X63780Y246460D02*
X68860Y246460D01*
X63780Y246460D02*
X63780Y242650D01*
X61240Y246460D02*
X28220Y246460D01*
X61240Y242650D02*
X63780Y242650D01*
X58700Y242650D02*
X58700Y229950D01*
X61240Y217250D02*
X63780Y217250D01*
X61240Y217250D02*
X58700Y217250D01*
X61240Y229950D02*
X63780Y229950D01*
X61240Y229950D02*
X58700Y229950D01*
X61240Y221060D02*
X61240Y217250D01*
X61240Y221060D02*
X61240Y226140D01*
X61240Y229950D01*
X61240Y242650D02*
X61240Y246460D01*
X61240Y242650D02*
X58700Y242650D01*
X61240Y246460D02*
X63780Y246460D01*
X20600Y233760D02*
X19330Y233760D01*
X20600Y238840D02*
X20600Y246460D01*
X20600Y238840D02*
X19330Y238840D01*
X19330Y233760D01*
X20600Y226140D02*
X21870Y226140D01*
X20600Y226140D02*
X20600Y233760D01*
X21870Y226140D02*
X21870Y221060D01*
X20600Y221060D01*
X28220Y219790D02*
X29490Y221060D01*
X32030Y223600D01*
X19330Y162640D02*
X19330Y157560D01*
X20600Y157560D02*
X20600Y149940D01*
X21870Y149940D02*
X21870Y144860D01*
X20600Y144860D02*
X20600Y137240D01*
X28220Y144860D02*
X28220Y124540D01*
X28220Y149940D02*
X61240Y149940D01*
X61240Y144860D02*
X28220Y144860D01*
X29490Y221060D02*
X61240Y221060D01*
X61240Y226140D02*
X29490Y226140D01*
X63780Y153750D02*
X63780Y141050D01*
X63780Y217250D02*
X63780Y229950D01*
X67590Y221060D02*
X68860Y221060D01*
X28220Y119460D02*
X28220Y99140D01*
X28220Y144860D02*
X28220Y149940D01*
X67590Y119460D02*
X68860Y119460D01*
X68860Y124540D02*
X67590Y124540D01*
X67590Y119460D01*
X63780Y115650D02*
X63780Y128350D01*
X61240Y124540D02*
X61240Y119460D01*
X28220Y119460D02*
X28220Y124540D01*
X21870Y124540D02*
X21870Y119460D01*
X20600Y119460D01*
X20600Y124540D02*
X21870Y124540D01*
X67590Y170260D02*
X68860Y170260D01*
X68860Y149940D01*
X67590Y170260D02*
X67590Y175340D01*
X68860Y175340D01*
X63780Y166450D02*
X61240Y166450D01*
X58700Y166450D02*
X58700Y153750D01*
X58700Y166450D02*
X61240Y166450D01*
X61240Y179150D02*
X63780Y179150D01*
X61240Y179150D02*
X58700Y179150D01*
X61240Y170260D02*
X61240Y166450D01*
X61240Y170260D02*
X61240Y175340D01*
X61240Y179150D01*
X20600Y182960D02*
X19330Y182960D01*
X19330Y188040D02*
X20600Y188040D01*
X20600Y175340D02*
X21870Y175340D01*
X21870Y170260D02*
X20600Y170260D01*
X19330Y182960D02*
X19330Y188040D01*
X20600Y182960D02*
X20600Y175340D01*
X21870Y175340D02*
X21870Y170260D01*
X20600Y170260D02*
X20600Y162640D01*
X28220Y170260D02*
X28220Y149940D01*
X28220Y175340D02*
X61240Y175340D01*
X61240Y170260D02*
X28220Y170260D01*
X63780Y166450D02*
X63780Y179150D01*
X28220Y175340D02*
X28220Y170260D01*
X67590Y195660D02*
X68860Y195660D01*
X68860Y175340D01*
X67590Y195660D02*
X67590Y200740D01*
X68860Y200740D01*
X63780Y191850D02*
X61240Y191850D01*
X58700Y191850D02*
X58700Y179150D01*
X58700Y191850D02*
X61240Y191850D01*
X61240Y204550D02*
X63780Y204550D01*
X61240Y204550D02*
X58700Y204550D01*
X61240Y195660D02*
X61240Y191850D01*
X61240Y195660D02*
X61240Y200740D01*
X61240Y204550D01*
X20600Y208360D02*
X19330Y208360D01*
X19330Y213440D02*
X20600Y213440D01*
X20600Y200740D02*
X21870Y200740D01*
X21870Y195660D02*
X20600Y195660D01*
X19330Y208360D02*
X19330Y213440D01*
X20600Y208360D02*
X20600Y200740D01*
X21870Y200740D02*
X21870Y195660D01*
X20600Y195660D02*
X20600Y188040D01*
X28220Y195660D02*
X28220Y175340D01*
X28220Y200740D02*
X61240Y200740D01*
X61240Y195660D02*
X28220Y195660D01*
X63780Y191850D02*
X63780Y204550D01*
X28220Y200740D02*
X28220Y195660D01*
X20600Y213440D02*
X20600Y221060D01*
X28220Y219790D02*
X28220Y200740D01*
X58700Y204550D02*
X58700Y217250D01*
X68860Y221060D02*
X68860Y200740D01*
M02*
